<svg width="20" height="20" viewBox="0 0 20 20" fill="none" xmlns="http://www.w3.org/2000/svg">
<path fill-rule="evenodd" clip-rule="evenodd" d="M4.63282 3.27842L10.7199 9.32784C11.0934 9.69906 11.0934 10.3009 10.7199 10.6722L4.63282 16.7216C4.25929 17.0928 3.65368 17.0928 3.28015 16.7216C2.90662 16.3504 2.90662 15.7485 3.28015 15.3773L7.73435 10.9506L8.68547 9.95976L7.73435 9.05673L3.28015 4.62273C2.90662 4.25151 2.90662 3.64964 3.28015 3.27842C3.65368 2.90719 4.25929 2.90719 4.63282 3.27842Z" fill="#AABEFA"/>
<path fill-rule="evenodd" clip-rule="evenodd" d="M10.6328 3.27842L16.7199 9.32784C17.0934 9.69906 17.0934 10.3009 16.7199 10.6722L10.6328 16.7216C10.2593 17.0928 9.65368 17.0928 9.28015 16.7216C8.90662 16.3504 8.90662 15.7485 9.28015 15.3773L13.7344 10.9506L14.6855 9.95976L13.7344 9.05673L9.28015 4.62273C8.90662 4.25151 8.90662 3.64964 9.28015 3.27842C9.65368 2.90719 10.2593 2.90719 10.6328 3.27842Z" fill="#AABEFA"/>
</svg>
