<svg width="235" height="45" viewBox="0 0 235 45" fill="none" xmlns="http://www.w3.org/2000/svg">
<g clip-path="url(#clip0_2961_2251)">
<path d="M113.527 17.0484L108.026 24.6026C107.974 24.6852 107.902 24.7532 107.816 24.8C107.729 24.8468 107.633 24.8709 107.534 24.8698H107.485C107.264 24.8698 107.093 24.7965 106.97 24.6026L101.469 17.0726V31.0388C101.464 31.1934 101.399 31.3401 101.286 31.4478C101.174 31.5554 101.024 31.6156 100.867 31.6156C100.711 31.6156 100.561 31.5554 100.448 31.4478C100.336 31.3401 100.271 31.1934 100.266 31.0388V15.2998C100.265 15.2088 100.287 15.119 100.33 15.0385C100.373 14.958 100.435 14.8892 100.511 14.8382C100.511 14.814 100.536 14.814 100.56 14.7898C100.692 14.7042 100.852 14.6717 101.007 14.6988C101.162 14.7259 101.301 14.8107 101.395 14.9357L107.51 23.3149L113.6 14.9357C113.775 14.668 114.165 14.6196 114.436 14.7898C114.5 14.8484 114.557 14.9135 114.607 14.9842C114.662 15.0814 114.696 15.1889 114.706 15.2998V31.0388C114.704 31.1928 114.641 31.34 114.531 31.4489C114.421 31.5578 114.272 31.62 114.116 31.6221C114.038 31.6228 113.961 31.6083 113.89 31.5792C113.818 31.5502 113.752 31.5072 113.698 31.4529C113.643 31.3986 113.599 31.334 113.57 31.2629C113.541 31.1918 113.526 31.1156 113.527 31.0388V17.0484Z" fill="#878787"/>
<path d="M127.426 14.377C132.018 14.377 135.628 18.2389 135.651 22.9996C135.626 27.7604 132.016 31.6223 127.426 31.6223C122.784 31.6223 119.149 27.7604 119.125 22.9996C119.149 18.2389 122.787 14.377 127.426 14.377ZM127.426 30.4321C131.208 30.4321 134.401 27.1529 134.426 22.9996C134.401 18.7979 131.209 15.5914 127.426 15.5914C123.521 15.5914 120.328 18.7979 120.328 22.9996C120.328 27.1535 123.521 30.4321 127.426 30.4321Z" fill="#878787"/>
<path d="M141.378 17.1217V31.0388C141.381 31.1169 141.368 31.1947 141.339 31.2676C141.311 31.3404 141.268 31.4069 141.213 31.463C141.158 31.5191 141.092 31.5638 141.019 31.5942C140.946 31.6247 140.868 31.6404 140.789 31.6404C140.71 31.6404 140.632 31.6247 140.559 31.5942C140.486 31.5638 140.42 31.5191 140.365 31.463C140.311 31.4069 140.267 31.3404 140.239 31.2676C140.21 31.1947 140.197 31.1169 140.2 31.0388V15.4457C140.162 15.3273 140.163 15.2001 140.202 15.0822C140.242 14.9644 140.319 14.862 140.421 14.7897C140.691 14.6196 141.084 14.668 141.255 14.9357L151.668 29.2174V15.3713C151.673 15.2167 151.739 15.07 151.851 14.9623C151.963 14.8546 152.114 14.7944 152.27 14.7944C152.426 14.7944 152.577 14.8546 152.689 14.9623C152.801 15.07 152.867 15.2167 152.872 15.3713V31.0388C152.868 31.1965 152.802 31.3464 152.687 31.4557C152.572 31.565 152.418 31.6248 152.258 31.6221C152.168 31.6244 152.079 31.6059 151.998 31.5679C151.917 31.5299 151.846 31.4735 151.791 31.4034C151.767 31.3792 151.717 31.3549 151.693 31.3059L141.378 17.1217Z" fill="#878787"/>
<path d="M158.375 15.2038C158.38 15.0492 158.445 14.9025 158.558 14.7948C158.67 14.6872 158.82 14.627 158.977 14.627C159.133 14.627 159.283 14.6872 159.396 14.7948C159.508 14.9025 159.574 15.0492 159.578 15.2038V31.0398C159.574 31.1944 159.508 31.3411 159.396 31.4487C159.283 31.5564 159.133 31.6166 158.977 31.6166C158.82 31.6166 158.67 31.5564 158.558 31.4487C158.445 31.3411 158.38 31.1944 158.375 31.0398V15.2038Z" fill="#878787"/>
<path d="M170.132 15.8103H164.95C164.794 15.8055 164.646 15.7407 164.537 15.6296C164.428 15.5185 164.367 15.3699 164.367 15.2152C164.367 15.0605 164.428 14.9119 164.537 14.8008C164.646 14.6897 164.794 14.6249 164.95 14.6201H176.493C176.649 14.6249 176.797 14.6897 176.906 14.8008C177.015 14.9119 177.076 15.0605 177.076 15.2152C177.076 15.3699 177.015 15.5185 176.906 15.6296C176.797 15.7407 176.649 15.8055 176.493 15.8103H171.311V31.0411C171.313 31.1192 171.3 31.197 171.272 31.2699C171.243 31.3427 171.2 31.4092 171.145 31.4653C171.09 31.5214 171.024 31.566 170.952 31.5965C170.879 31.627 170.801 31.6427 170.722 31.6427C170.643 31.6427 170.564 31.627 170.492 31.5965C170.419 31.566 170.353 31.5214 170.298 31.4653C170.243 31.4092 170.2 31.3427 170.172 31.2699C170.143 31.197 170.13 31.1192 170.132 31.0411V15.8103Z" fill="#878787"/>
<path d="M187.785 14.377C192.378 14.377 195.988 18.2389 196.01 22.9996C195.985 27.7604 192.375 31.6223 187.785 31.6223C183.144 31.6223 179.509 27.7604 179.484 22.9996C179.509 18.2389 183.144 14.377 187.785 14.377ZM187.785 30.4321C191.567 30.4321 194.76 27.1529 194.785 22.9996C194.76 18.7979 191.568 15.5914 187.785 15.5914C183.88 15.5914 180.688 18.7979 180.688 22.9996C180.688 27.1535 183.88 30.4321 187.785 30.4321Z" fill="#878787"/>
<path d="M209.672 27.7849C209.672 26.5463 209.033 25.7686 208.272 25.2101C207.513 24.6759 206.602 24.4088 206.283 24.3603C206.209 24.3361 206.185 24.3113 206.16 24.3113H201.985V31.0393C201.98 31.194 201.914 31.3406 201.802 31.4483C201.69 31.556 201.539 31.6162 201.383 31.6162C201.227 31.6162 201.076 31.556 200.964 31.4483C200.852 31.3406 200.786 31.194 200.781 31.0393V15.2034C200.785 15.0579 200.842 14.9187 200.941 14.8115C201.04 14.7042 201.176 14.6363 201.322 14.6201H206.234C207.348 14.6253 208.428 15.0054 209.296 15.6981C210.163 16.3908 210.766 17.3548 211.006 18.4316C211.246 19.5084 211.109 20.6339 210.616 21.6231C210.124 22.6123 209.306 23.4063 208.296 23.8745C208.376 23.9196 208.458 23.9601 208.542 23.9957C209.672 24.6274 210.851 25.8661 210.851 27.7849C210.851 28.7807 210.949 29.3876 211.072 29.7522C211.17 30.0436 211.293 30.1411 211.317 30.1653C211.587 30.1411 211.882 30.2865 211.98 30.5536C212.021 30.7082 212.003 30.8723 211.931 31.0153C211.859 31.1583 211.737 31.2705 211.587 31.3313C211.49 31.3449 211.391 31.353 211.293 31.3555H211.243C210.924 31.3555 210.408 31.1126 210.138 30.5778C209.844 30.0193 209.672 29.218 209.672 27.7849ZM206.234 15.8103H201.985V23.1459H206.332C207.304 23.1166 208.226 22.7108 208.898 22.0158C209.571 21.3209 209.941 20.3924 209.928 19.4305C209.915 18.4685 209.52 17.55 208.829 16.8729C208.139 16.1958 207.206 15.8142 206.234 15.8103Z" fill="#878787"/>
<path d="M52.8519 15.154C52.8493 15.0742 52.8631 14.9949 52.8922 14.9205C52.9213 14.8461 52.9652 14.7783 53.0213 14.721C53.0774 14.6638 53.1446 14.6182 53.2189 14.5871C53.2931 14.5561 53.3729 14.54 53.4536 14.54C53.5342 14.54 53.614 14.5561 53.6882 14.5871C53.7625 14.6182 53.8297 14.6638 53.8858 14.721C53.9419 14.7783 53.9858 14.8461 54.0149 14.9205C54.0441 14.9949 54.0578 15.0742 54.0553 15.154V24.9905L64.4437 14.7166C64.6893 14.498 65.0818 14.498 65.2784 14.7166C65.524 14.9353 65.524 15.3236 65.2784 15.5665L58.6991 22.077L65.4283 30.5295C65.6243 30.7966 65.5753 31.137 65.3298 31.3799C65.2183 31.4665 65.0786 31.5096 64.9372 31.5011C64.8506 31.5062 64.7641 31.4887 64.6865 31.4503C64.6089 31.4119 64.5428 31.354 64.495 31.2824L57.8399 22.9274L54.0576 26.6676V30.9184C54.0527 31.073 53.9872 31.2197 53.8749 31.3273C53.7626 31.435 53.6123 31.4952 53.4559 31.4952C53.2995 31.4952 53.1492 31.435 53.0369 31.3273C52.9246 31.2197 52.8591 31.073 52.8542 30.9184L52.8519 15.154Z" fill="#22409A"/>
<path d="M70.4141 15.0817C70.4162 14.9278 70.4789 14.7808 70.589 14.672C70.699 14.5632 70.8476 14.5011 71.0032 14.499H75.8658C78.5672 14.499 80.7529 16.685 80.7529 19.3567C80.7533 19.9916 80.6271 20.6203 80.3817 21.2069C80.1362 21.7934 79.7763 22.3264 79.3224 22.7753C78.8685 23.2242 78.3296 23.5803 77.7365 23.823C77.1434 24.0658 76.5077 24.1906 75.8658 24.1902L71.6175 24.2386V30.9183C71.6126 31.0729 71.5471 31.2196 71.4348 31.3272C71.3224 31.4349 71.1722 31.4951 71.0158 31.4951C70.8593 31.4951 70.7091 31.4349 70.5968 31.3272C70.4845 31.2196 70.4189 31.0729 70.4141 30.9183V15.0817ZM75.8658 23.0484C77.9039 23.0242 79.574 21.3754 79.574 19.3561C79.5706 18.3845 79.1789 17.4536 78.4842 16.7665C77.7895 16.0795 76.8482 15.692 75.8658 15.6886H71.6175V23.0484H75.8658Z" fill="#22409A"/>
<path d="M84.8984 15.0817C84.9033 14.9271 84.9688 14.7804 85.0811 14.6728C85.1935 14.5651 85.3437 14.5049 85.5001 14.5049C85.6566 14.5049 85.8068 14.5651 85.9191 14.6728C86.0314 14.7804 86.097 14.9271 86.1018 15.0817V30.9183C86.097 31.0729 86.0314 31.2196 85.9191 31.3272C85.8068 31.4349 85.6566 31.4951 85.5001 31.4951C85.3437 31.4951 85.1935 31.4349 85.0811 31.3272C84.9688 31.2196 84.9033 31.0729 84.8984 30.9183V15.0817Z" fill="#22409A"/>
<path d="M22.2441 44.5C34.5292 44.5 44.4882 34.6503 44.4882 22.5C44.4882 10.3497 34.5292 0.5 22.2441 0.5C9.95903 0.5 0 10.3497 0 22.5C0 34.6503 9.95903 44.5 22.2441 44.5Z" fill="#22409A"/>
<path d="M23.0547 30.5636V14.7236C23.0547 14.3286 23.2133 13.9498 23.4957 13.6706C23.7781 13.3913 24.1611 13.2344 24.5604 13.2344C24.9598 13.2344 25.3428 13.3913 25.6252 13.6706C25.9076 13.9498 26.0662 14.3286 26.0662 14.7236V22.4947L34.9365 13.6947C35.0751 13.5533 35.2411 13.4409 35.4245 13.3641C35.6079 13.2874 35.805 13.2478 36.0042 13.2478C36.2033 13.2478 36.4005 13.2874 36.5839 13.3641C36.7673 13.4409 36.9332 13.5533 37.0719 13.6947C37.6468 14.2633 37.6468 15.211 37.0719 15.8067L31.0489 21.7365L37.1284 29.6159C37.6759 30.2364 37.5664 31.1864 36.9093 31.7031C36.6467 31.9365 36.3041 32.0623 35.9511 32.0551C35.7355 32.051 35.5233 32.0004 35.3294 31.9069C35.1356 31.8134 34.9647 31.6791 34.8287 31.5136L28.9152 23.8485L26.0679 26.7187V30.5636C26.0679 30.9586 25.9093 31.3374 25.6269 31.6167C25.3445 31.8959 24.9615 32.0528 24.5622 32.0528C24.1628 32.0528 23.7798 31.8959 23.4974 31.6167C23.215 31.3374 23.0564 30.9586 23.0564 30.5636H23.0547Z" fill="#FEFEFF"/>
<path d="M20.6353 30.5908C20.6353 31.3732 19.9508 32.0072 19.1067 32.0072C18.2626 32.0072 17.5781 31.3732 17.5781 30.5908V18.3667C17.5781 17.5848 18.2626 16.9502 19.1067 16.9502C19.9508 16.9502 20.6353 17.5848 20.6353 18.3667V30.5908Z" fill="#FEFEFF"/>
<path d="M15.3853 30.5866C15.3853 31.369 14.7008 32.003 13.8567 32.003C13.0126 32.003 12.3281 31.369 12.3281 30.5866V21.372C12.3281 20.5901 13.0126 19.9561 13.8567 19.9561C14.7008 19.9561 15.3853 20.5901 15.3853 21.372V30.5866Z" fill="#FEFEFF"/>
<path d="M10.2206 30.6928C10.2206 31.4323 9.5362 32.032 8.69206 32.032C7.84793 32.032 7.16406 31.4323 7.16406 30.6928V24.8222C7.16406 24.0821 7.8485 23.4824 8.69206 23.4824C9.5362 23.4824 10.2206 24.0821 10.2206 24.8222V30.6928Z" fill="#FEFEFF"/>
</g>
<defs>
<clipPath id="clip0_2961_2251">
<rect width="235" height="44" fill="white" transform="translate(0 0.5)"/>
</clipPath>
</defs>
</svg>
