<svg width="40" height="40" viewBox="0 0 40 40" fill="none" xmlns="http://www.w3.org/2000/svg" class='left2'>
<rect x="0.5" y="39.5" width="39" height="39" rx="19.5" transform="rotate(-90 0.5 39.5)" fill="#AABEFA"/>
<rect x="0.5" y="39.5" width="39" height="39" rx="19.5" transform="rotate(-90 0.5 39.5)" stroke="#AABEFA"/>
<path fill-rule="evenodd" clip-rule="evenodd" d="M21.3672 26.7216L15.2801 20.6722C14.9066 20.3009 14.9066 19.6991 15.2801 19.3278L21.3672 13.2784C21.7407 12.9072 22.3463 12.9072 22.7199 13.2784C23.0934 13.6496 23.0934 14.2515 22.7199 14.6227L18.2656 19.0494L17.3145 20.0402L18.2656 20.9433L22.7199 25.3773C23.0934 25.7485 23.0934 26.3504 22.7199 26.7216C22.3463 27.0928 21.7407 27.0928 21.3672 26.7216Z" fill="#22409A"/>
</svg>
