<svg width="40" height="40" viewBox="0 0 40 40" fill="none" xmlns="http://www.w3.org/2000/svg" class='right-arrow-hover'>
<rect x="39.5" y="0.5" width="39" height="39" rx="19.5" transform="rotate(90 39.5 0.5)" fill="#0F2978"/>
<rect x="39.5" y="0.5" width="39" height="39" rx="19.5" transform="rotate(90 39.5 0.5)" stroke="#0F2978"/>
<path fill-rule="evenodd" clip-rule="evenodd" d="M18.6328 13.2784L24.7199 19.3278C25.0934 19.6991 25.0934 20.3009 24.7199 20.6722L18.6328 26.7216C18.2593 27.0928 17.6537 27.0928 17.2801 26.7216C16.9066 26.3504 16.9066 25.7485 17.2801 25.3773L21.7344 20.9506L22.6855 19.9598L21.7344 19.0567L17.2801 14.6227C16.9066 14.2515 16.9066 13.6496 17.2801 13.2784C17.6537 12.9072 18.2593 12.9072 18.6328 13.2784Z" fill="#FEFEFF"/>
</svg>
