<svg width="62" height="77" viewBox="0 0 62 77" fill="none" xmlns="http://www.w3.org/2000/svg">
<mask id="mask0_3139_1675" style="mask-type:luminance" maskUnits="userSpaceOnUse" x="0" y="0" width="62" height="77">
<path d="M62 0H0V77H62V0Z" fill="white"/>
</mask>
<g mask="url(#mask0_3139_1675)">
<path d="M23.7325 48.4611C23.7931 48.4688 23.8547 48.4619 23.9126 48.4413C23.9704 48.4205 24.0229 48.3865 24.0662 48.3417C24.1094 48.2968 24.1422 48.2424 24.1622 48.1825C24.1822 48.1226 24.1887 48.0588 24.1814 47.9958V46.8884C24.1897 46.825 24.1839 46.7605 24.1643 46.6998C24.1447 46.6391 24.1121 46.5839 24.0687 46.5384C24.0253 46.4929 23.9725 46.4583 23.9141 46.4373C23.8558 46.4162 23.7937 46.4094 23.7325 46.4172H18.7652C18.7039 46.4094 18.6417 46.4162 18.5835 46.4373C18.5252 46.4583 18.4723 46.4929 18.4289 46.5384C18.3855 46.5839 18.3528 46.6391 18.3333 46.6998C18.3137 46.7605 18.3078 46.825 18.3162 46.8884V59.1818C18.3089 59.2447 18.3154 59.3085 18.3354 59.3685C18.3553 59.4284 18.3882 59.4828 18.4315 59.5276C18.4747 59.5725 18.5272 59.6065 18.585 59.6272C18.6428 59.6479 18.7044 59.6547 18.7652 59.6471H23.7325C23.7931 59.6547 23.8547 59.6479 23.9126 59.6272C23.9704 59.6065 24.0229 59.5725 24.0662 59.5276C24.1094 59.4828 24.1422 59.4284 24.1622 59.3685C24.1822 59.3085 24.1887 59.2447 24.1814 59.1818V58.0685C24.1887 58.0055 24.1822 57.9417 24.1622 57.8818C24.1422 57.8219 24.1094 57.7674 24.0662 57.7226C24.0229 57.6778 23.9704 57.6437 23.9126 57.623C23.8547 57.6024 23.7931 57.5955 23.7325 57.6032H20.4304V53.8804H23.1357C23.1964 53.888 23.258 53.8811 23.3158 53.8605C23.3736 53.8397 23.4261 53.8057 23.4694 53.7609C23.5126 53.7161 23.5455 53.6616 23.5654 53.6017C23.5855 53.5418 23.592 53.4779 23.5847 53.415V52.3488C23.592 52.2859 23.5855 52.222 23.5654 52.1622C23.5455 52.1022 23.5126 52.0478 23.4694 52.003C23.4261 51.9582 23.3736 51.9241 23.3158 51.9034C23.258 51.8827 23.1964 51.8759 23.1357 51.8835H20.4304V48.4611H23.7325Z" fill="#22409A"/>
<path d="M53.4868 59.5996C54.2552 59.7502 55.035 59.8291 55.817 59.8352C60.0057 59.8352 60.1989 56.2244 60.1989 52.8963C60.2315 50.8711 59.8438 48.8623 59.0622 47.0059C58.9967 46.8687 58.8998 46.7503 58.7799 46.6609C58.6599 46.5716 58.5208 46.5141 58.3745 46.4933C57.6494 46.3487 56.9133 46.2718 56.175 46.2637C51.8614 46.2637 51.6284 49.7979 51.6284 53.1378C51.5844 55.1641 51.9725 57.1754 52.765 59.0282C52.825 59.1818 52.9235 59.3157 53.0505 59.4162C53.1775 59.5167 53.3282 59.5801 53.4868 59.5996ZM56.0443 49.2913C56.218 49.2962 56.391 49.3159 56.5615 49.3503C56.8602 50.5182 56.9998 51.7236 56.9764 52.9316C56.9764 55.5234 56.7945 56.7604 55.9306 56.7604C55.7144 56.7611 55.4989 56.7354 55.2884 56.6838C54.9859 55.5185 54.8423 54.315 54.8622 53.1083C54.8622 50.4459 55.0611 49.2913 56.0443 49.2913Z" fill="#22409A"/>
<path d="M45.8865 46.8884C45.8937 46.8252 45.8871 46.7612 45.8671 46.7011C45.8472 46.6409 45.8144 46.5862 45.7713 46.541C45.7282 46.4957 45.6758 46.4611 45.618 46.4396C45.5603 46.4183 45.4986 46.4106 45.4376 46.4172H43.3745C43.3132 46.4094 43.251 46.4162 43.1928 46.4373C43.1345 46.4583 43.0816 46.4929 43.0383 46.5384C42.9949 46.5839 42.9622 46.6391 42.9426 46.6998C42.9231 46.7605 42.9173 46.825 42.9255 46.8884V59.1818C42.9182 59.2447 42.9247 59.3085 42.9447 59.3685C42.9647 59.4284 42.9976 59.4828 43.0408 59.5276C43.084 59.5725 43.1365 59.6065 43.1944 59.6272C43.2522 59.6479 43.3138 59.6547 43.3745 59.6471H45.4376C45.4983 59.6547 45.5599 59.6479 45.6177 59.6272C45.6755 59.6065 45.7281 59.5725 45.7713 59.5276C45.8146 59.4828 45.8474 59.4284 45.8674 59.3685C45.8873 59.3085 45.8939 59.2447 45.8865 59.1818V54.3104H47.6996V59.1818C47.6922 59.2447 47.6988 59.3085 47.7187 59.3685C47.7387 59.4284 47.7716 59.4828 47.8149 59.5276C47.8581 59.5725 47.9106 59.6065 47.9684 59.6272C48.0262 59.6479 48.0878 59.6547 48.1486 59.6471H50.1775C50.2382 59.6547 50.2998 59.6479 50.3577 59.6272C50.4154 59.6065 50.468 59.5725 50.5112 59.5276C50.5545 59.4828 50.5873 59.4284 50.6073 59.3685C50.6272 59.3085 50.6338 59.2447 50.6265 59.1818V46.8884C50.6348 46.825 50.6289 46.7605 50.6093 46.6998C50.5898 46.6391 50.5571 46.5839 50.5138 46.5384C50.4704 46.4929 50.4175 46.4583 50.3592 46.4373C50.3009 46.4162 50.2388 46.4094 50.1775 46.4172H48.1486C48.0875 46.4106 48.0258 46.4183 47.9681 46.4396C47.9103 46.4611 47.858 46.4957 47.8148 46.541C47.7717 46.5862 47.739 46.6409 47.719 46.7011C47.699 46.7612 47.6924 46.8252 47.6996 46.8884V51.4888H45.8865V46.8884Z" fill="#22409A"/>
<path d="M34.0503 59.6464H35.8519C35.9103 59.6528 35.9694 59.6471 36.0256 59.6294C36.0818 59.6117 36.1339 59.5825 36.179 59.5435C36.2241 59.5045 36.2612 59.4565 36.2879 59.4023C36.3147 59.3481 36.3307 59.2889 36.3349 59.2282L36.6703 57.1488H39.0402L39.3869 59.2282C39.3998 59.3512 39.4589 59.464 39.5515 59.5423C39.644 59.6205 39.7625 59.6579 39.8814 59.6464H41.666C41.7285 59.6558 41.7922 59.6485 41.8511 59.6252C41.9101 59.6018 41.9623 59.5632 42.0028 59.513C42.0432 59.4628 42.0706 59.4027 42.0823 59.3383C42.0939 59.274 42.0896 59.2077 42.0695 59.1457L40.0064 47.4708C39.979 47.1612 39.8346 46.8753 39.6045 46.6756C39.3746 46.4759 39.0778 46.3784 38.7788 46.4047H36.9089C36.6118 46.3784 36.3166 46.4741 36.0869 46.6713C35.8572 46.8686 35.7116 47.1515 35.6813 47.459L33.641 59.134C33.618 59.1971 33.6115 59.2655 33.6222 59.3321C33.6329 59.3988 33.6605 59.4613 33.702 59.5134C33.7436 59.5654 33.7976 59.6051 33.8589 59.6285C33.92 59.6518 33.986 59.658 34.0503 59.6464ZM37.6649 48.9493H38.0115L38.7219 54.6513H37.0169L37.6649 48.9493Z" fill="#22409A"/>
<path d="M35.5784 71.2389C35.4784 71.2388 35.3824 71.2796 35.3111 71.3524C35.2399 71.4251 35.1991 71.524 35.1976 71.6277C35.1976 72.6055 35.1976 74.8497 33.5835 74.8497C33.2791 74.851 32.975 74.8273 32.6742 74.779C32.2352 73.2939 32.043 71.7422 32.1058 70.1904C32.1058 67.4807 32.2195 65.6841 33.737 65.6841C34.017 65.6808 34.2967 65.7045 34.5724 65.7548C34.8378 66.6426 34.9814 67.5647 34.9987 68.4939C34.9978 68.54 35.0062 68.5859 35.0232 68.6284C35.0401 68.6711 35.0654 68.7096 35.0974 68.7417C35.1295 68.7737 35.1674 68.7986 35.2091 68.8147C35.2508 68.8309 35.2953 68.838 35.3397 68.8356C36.8458 68.8356 37.0049 66.2438 36.5445 64.3647C36.513 64.1947 36.4288 64.0399 36.3046 63.9241C36.1805 63.8082 36.0233 63.7374 35.8569 63.7227C35.1528 63.5979 34.4398 63.5348 33.7256 63.5342C30.1906 63.5342 29.7472 66.8622 29.804 70.1904C29.7416 72.2615 30.0878 74.3241 30.8214 76.2517C30.8726 76.408 30.9654 76.5463 31.0891 76.6505C31.2127 76.7547 31.3623 76.8206 31.5204 76.8406C32.2232 76.9582 32.9342 77.0153 33.646 77.0115C37.6755 76.9939 37.3914 71.2389 35.5784 71.2389Z" fill="#22409A"/>
<path d="M53.2077 70.0613V69.8492C53.6612 69.5708 54.0311 69.1672 54.2759 68.6835C54.5209 68.1998 54.6311 67.655 54.5945 67.1101C54.5945 65.0426 53.2759 63.6524 51.1276 63.6524H47.53C47.4693 63.6448 47.4077 63.6517 47.3499 63.6723C47.2921 63.6931 47.2396 63.7271 47.1963 63.7719C47.1531 63.8167 47.1202 63.8712 47.1003 63.9311C47.0802 63.991 47.0737 64.0549 47.081 64.1178V76.4112C47.0739 76.4743 47.0806 76.5383 47.1005 76.5985C47.1204 76.6586 47.1531 76.7134 47.1962 76.7585C47.2394 76.8038 47.2917 76.8385 47.3495 76.8599C47.4073 76.8813 47.469 76.889 47.53 76.8824H51.3152C53.3555 76.8824 54.8104 75.2802 54.8104 73.0713C54.8104 71.8814 54.4467 70.5973 53.2077 70.0613ZM50.6274 74.267H50.0591V66.2678H50.4683C51.2526 66.2678 51.6391 66.8981 51.6391 67.7169C51.6467 67.9489 51.6071 68.18 51.5229 68.3951C51.4387 68.6103 51.3117 68.8047 51.1503 68.9656C50.9525 69.0893 50.7869 69.2614 50.668 69.4668C50.5491 69.6721 50.4806 69.9045 50.4683 70.1437C50.4731 70.3861 50.5469 70.6216 50.6804 70.8207C50.8138 71.0198 51.0011 71.1736 51.2185 71.2629C51.429 71.4274 51.5962 71.6442 51.7044 71.8934C51.8127 72.1425 51.8586 72.416 51.838 72.6884C51.821 73.5013 51.4572 74.267 50.6274 74.267Z" fill="#22409A"/>
<path d="M45.5035 63.582C45.3614 63.582 45.2023 63.582 45.0204 63.582C43.7474 63.582 43.0824 64.2358 42.713 65.5436L42.1446 67.5522C41.8946 68.4416 41.6616 68.8598 41.0932 68.8598H40.8602V64.1475C40.8675 64.0846 40.861 64.0207 40.841 63.9608C40.821 63.9009 40.7882 63.8464 40.7449 63.8016C40.7017 63.7568 40.6492 63.7228 40.5913 63.702C40.5336 63.6813 40.472 63.6745 40.4112 63.6821H38.5925C38.5318 63.6745 38.4702 63.6813 38.4124 63.702C38.3546 63.7228 38.302 63.7568 38.2588 63.8016C38.2156 63.8464 38.1828 63.9009 38.1627 63.9608C38.1428 64.0207 38.1362 64.0846 38.1435 64.1475V76.4409C38.1364 76.504 38.143 76.568 38.163 76.6282C38.1829 76.6883 38.2157 76.7431 38.2588 76.7883C38.3019 76.8336 38.3543 76.8681 38.4121 76.8896C38.4698 76.911 38.5315 76.9187 38.5925 76.9121H40.4112C40.4723 76.9187 40.5339 76.911 40.5917 76.8896C40.6495 76.8681 40.7018 76.8336 40.7449 76.7883C40.7881 76.7431 40.8208 76.6883 40.8407 76.6282C40.8607 76.568 40.8674 76.504 40.8602 76.4409V71.3986H41.0932C41.6616 71.3986 41.9514 71.8051 42.1446 72.7063L42.6164 74.927C42.9232 76.3348 43.6962 77.0005 44.9693 77.0005C45.1415 77.0108 45.3142 77.0108 45.4865 77.0005C45.5465 77.0001 45.6059 76.9866 45.6606 76.9607C45.7152 76.9349 45.764 76.8975 45.8037 76.8507C45.8434 76.804 45.8732 76.7491 45.891 76.6896C45.9088 76.6302 45.9142 76.5675 45.9071 76.5057V74.8622C45.9117 74.8077 45.9056 74.7528 45.889 74.7008C45.8724 74.6489 45.8456 74.601 45.8106 74.5601C45.7754 74.5193 45.7325 74.4863 45.6846 74.4633C45.6367 74.4403 45.5848 74.4277 45.5319 74.4263C45.2307 74.4263 44.992 74.1613 44.9011 73.7489L44.4976 71.8699C44.452 71.4944 44.3262 71.1342 44.1296 70.8152C43.9331 70.4964 43.6705 70.2268 43.3609 70.0261V69.8612C43.6462 69.7504 43.8967 69.5605 44.0851 69.3122C44.2735 69.064 44.3926 68.767 44.4294 68.4534L44.8386 66.8983C44.9352 66.4919 45.1739 66.2209 45.5092 66.2209C45.8445 66.2209 45.9184 66.0324 45.9184 65.7556V64.0768C45.9239 64.0158 45.9173 63.9543 45.8992 63.896C45.8811 63.8377 45.8518 63.7838 45.813 63.7375C45.7742 63.6913 45.7268 63.6537 45.6736 63.627C45.6204 63.6003 45.5626 63.5849 45.5035 63.582Z" fill="#22409A"/>
<path d="M61.5528 66.7331C61.6135 66.7408 61.6751 66.7339 61.7329 66.7133C61.7908 66.6925 61.8433 66.6585 61.8865 66.6136C61.9297 66.5689 61.9626 66.5144 61.9826 66.4545C62.0026 66.3946 62.0091 66.3307 62.0018 66.2678V64.1178C62.0091 64.0549 62.0026 63.991 61.9826 63.9311C61.9626 63.8712 61.9297 63.8167 61.8865 63.7719C61.8433 63.7271 61.7908 63.6931 61.7329 63.6723C61.6751 63.6517 61.6135 63.6448 61.5528 63.6524H56.1137C56.0528 63.6451 55.9911 63.6519 55.933 63.6726C55.875 63.6933 55.8222 63.7272 55.7786 63.7719C55.7349 63.8166 55.7015 63.8709 55.6808 63.9307C55.6601 63.9906 55.6527 64.0546 55.6591 64.1178V76.4112C55.6518 76.4749 55.6586 76.5395 55.6788 76.6001C55.6991 76.6607 55.7323 76.7158 55.7761 76.7611C55.8198 76.8065 55.873 76.841 55.9315 76.862C55.99 76.883 56.0523 76.89 56.1137 76.8824H61.5528C61.6138 76.889 61.6755 76.8813 61.7332 76.8599C61.791 76.8385 61.8434 76.8038 61.8865 76.7585C61.9296 76.7134 61.9624 76.6586 61.9823 76.5985C62.0023 76.5383 62.0089 76.4744 62.0018 76.4112V74.267C62.0089 74.2039 62.0023 74.1398 61.9823 74.0797C61.9624 74.0195 61.9296 73.9649 61.8865 73.9196C61.8434 73.8743 61.791 73.8397 61.7332 73.8183C61.6755 73.7969 61.6138 73.7892 61.5528 73.7958H58.9611V71.6516H61.2686C61.3301 71.6593 61.3924 71.6523 61.4509 71.6313C61.5094 71.6102 61.5625 71.5758 61.6063 71.5304C61.65 71.4851 61.6833 71.43 61.7036 71.3693C61.7239 71.3087 61.7306 71.2442 61.7233 71.1804V69.1836C61.7297 69.1203 61.7222 69.0564 61.7016 68.9966C61.6809 68.9367 61.6474 68.8824 61.6038 68.8377C61.5602 68.793 61.5074 68.759 61.4494 68.7384C61.3913 68.7177 61.3295 68.7108 61.2686 68.7182H58.9611V66.7331H61.5528Z" fill="#22409A"/>
<path d="M30.5621 59.1812C30.5547 59.2441 30.5613 59.3079 30.5813 59.3679C30.6012 59.4277 30.6341 59.4822 30.6774 59.5271C30.7206 59.5718 30.7731 59.6059 30.8309 59.6266C30.8887 59.6473 30.9503 59.6541 31.0111 59.6465H32.3523C32.4133 59.654 32.475 59.647 32.533 59.6264C32.591 59.6057 32.6439 59.5718 32.6876 59.5271C32.7312 59.4824 32.7646 59.4281 32.7853 59.3682C32.8059 59.3083 32.8134 59.2444 32.807 59.1812V46.8877C32.8143 46.8241 32.8076 46.7594 32.7873 46.6989C32.7671 46.6382 32.7338 46.5832 32.69 46.5378C32.6462 46.4925 32.5931 46.458 32.5346 46.437C32.4761 46.4159 32.4138 46.4089 32.3523 46.4166H28.05C27.8591 46.396 27.6662 46.4184 27.4844 46.4822C27.3026 46.5459 27.1362 46.6494 26.9965 46.7858C26.8568 46.9222 26.7471 47.0883 26.6749 47.2726C26.6027 47.4568 26.5697 47.6551 26.578 47.8538L26.0892 55.2404C25.9983 56.5835 25.8335 57.5966 25.1003 57.5966C24.8389 57.5966 24.7366 57.7616 24.7366 58.0619V59.1753C24.7302 59.2385 24.7376 59.3024 24.7583 59.3623C24.779 59.4222 24.8124 59.4765 24.856 59.5212C24.8997 59.5659 24.9525 59.5998 25.0106 59.6205C25.0686 59.6411 25.1303 59.6481 25.1913 59.6406H25.3106C27.7431 59.6406 28.0557 57.8734 28.2149 55.423L28.6297 48.8434C28.6267 48.8003 28.6331 48.7571 28.6484 48.7169C28.6636 48.6767 28.6875 48.6406 28.718 48.6111C28.7485 48.5817 28.785 48.5598 28.8249 48.547C28.8647 48.5342 28.9068 48.5308 28.948 48.5371H30.5905L30.5621 59.1812Z" fill="#22409A"/>
<path d="M5.55688 47.6657C5.90666 47.6627 6.25619 47.6863 6.60262 47.7364C6.92089 48.5081 6.94362 50.016 6.99477 50.7995C6.99483 50.8526 7.00663 50.905 7.02929 50.9527C7.05195 51.0004 7.08485 51.042 7.12547 51.0744C7.16609 51.1068 7.21334 51.1292 7.26359 51.1398C7.31384 51.1503 7.36575 51.1487 7.41534 51.1352C8.20535 51.0233 8.552 48.9145 7.98364 47.0708C7.94307 46.9023 7.85281 46.7511 7.72553 46.6382C7.59822 46.5252 7.44015 46.4561 7.27326 46.4406C6.71 46.3419 6.13947 46.2946 5.56824 46.2991C2.03318 46.2991 1.49894 49.2797 1.53304 52.9554C1.50462 55.0149 1.81403 57.0645 2.44807 59.0166C2.4977 59.1806 2.59455 59.3249 2.7256 59.4302C2.85664 59.5355 3.01563 59.5967 3.18122 59.6057C3.87032 59.7083 4.56521 59.7634 5.26134 59.7706C8.67137 59.7706 8.71681 54.6283 7.30167 54.4692C7.25233 54.4573 7.20092 54.4579 7.15188 54.4712C7.10283 54.4844 7.05763 54.5098 7.02016 54.5451C6.98269 54.5805 6.95407 54.6248 6.93678 54.6741C6.91949 54.7235 6.91403 54.7765 6.92088 54.8285C6.87542 55.8358 7.13686 58.3628 5.13062 58.3628C4.6183 58.366 4.10615 58.3424 3.59611 58.2921C3.17578 56.5376 2.94888 54.7394 2.91979 52.9318C2.94252 49.1972 3.51654 47.6657 5.55688 47.6657Z" fill="#22409A"/>
<path d="M4.61782 69.9671V69.8257C5.60104 69.3015 5.94773 68.0174 5.94773 67.0513C5.94773 65.078 4.75422 63.629 2.82755 63.629H0.451898C0.391175 63.6214 0.329579 63.6282 0.271767 63.6489C0.213954 63.6695 0.161438 63.7036 0.118188 63.7484C0.0749384 63.7933 0.0420869 63.8477 0.022116 63.9076C0.00214511 63.9676 -0.00442249 64.0314 0.00291044 64.0943V76.3877C-0.00424013 76.4508 0.00240588 76.5149 0.0223556 76.575C0.0423052 76.6352 0.0750479 76.6898 0.118161 76.7351C0.161275 76.7804 0.213654 76.815 0.271423 76.8364C0.329192 76.8578 0.390873 76.8655 0.451898 76.8589H2.91849C5.09522 76.8589 6.28873 75.1625 6.28873 73.1185C6.28873 71.9875 5.80565 70.4324 4.61782 69.9671ZM2.57748 75.4806H1.38965V65.0427H2.45813C2.73673 65.0171 3.01735 65.0555 3.28002 65.155C3.54271 65.2546 3.78099 65.4129 3.97795 65.6187C4.17491 65.8245 4.32569 66.0728 4.41958 66.3458C4.51348 66.6189 4.54817 66.9101 4.5212 67.1986C4.5212 68.4415 4.13473 69.2307 3.23676 69.384C2.75935 69.4664 2.58317 69.761 2.58317 70.0731C2.58584 70.2541 2.65488 70.4273 2.77626 70.5575C2.89765 70.6877 3.06229 70.7651 3.23676 70.774C4.27113 70.9037 4.84515 71.64 4.84515 73.0714C4.87094 73.3895 4.83046 73.7096 4.72641 74.01C4.62237 74.3105 4.45722 74.5842 4.24216 74.8127C4.02709 75.0412 3.76713 75.2191 3.47992 75.3343C3.1927 75.4495 2.88493 75.4994 2.57748 75.4806Z" fill="#22409A"/>
<path d="M15.6476 61.7202C15.6403 61.7832 15.6469 61.847 15.6668 61.9069C15.6868 61.9669 15.7196 62.0213 15.7629 62.0661C15.8061 62.111 15.8587 62.145 15.9164 62.1657C15.9743 62.1864 16.0359 62.1931 16.0966 62.1856H16.8525C16.9132 62.1931 16.9748 62.1864 17.0326 62.1657C17.0904 62.145 17.1429 62.111 17.1862 62.0661C17.2294 62.0213 17.2623 61.9669 17.2822 61.9069C17.3023 61.847 17.3088 61.7832 17.3015 61.7202V58.4746C17.3088 58.4117 17.3023 58.3478 17.2822 58.2879C17.2623 58.228 17.2294 58.1736 17.1862 58.1287C17.1429 58.0839 17.0904 58.0498 17.0326 58.0292C16.9748 58.0084 16.9132 58.0017 16.8525 58.0092H16.2443V46.8881C16.2515 46.8249 16.2449 46.7609 16.2249 46.7007C16.2049 46.6406 16.1722 46.5859 16.1291 46.5406C16.086 46.4954 16.0336 46.4608 15.9758 46.4393C15.9181 46.4179 15.8564 46.4102 15.7953 46.4169H12.0102C11.8197 46.3946 11.6267 46.4153 11.4447 46.4776C11.2626 46.5398 11.0957 46.6422 10.9553 46.7776C10.8149 46.913 10.7045 47.0783 10.6315 47.2621C10.5585 47.4458 10.5248 47.6438 10.5326 47.8423L10.004 55.3644C9.90173 56.7605 9.74257 57.9798 9.05484 57.9798C8.79915 57.9798 8.65137 58.1389 8.65137 58.4451V61.7202C8.64399 61.7832 8.65059 61.847 8.67052 61.9069C8.69053 61.9669 8.72342 62.0213 8.76666 62.0661C8.8099 62.111 8.86241 62.145 8.92017 62.1657C8.97801 62.1864 9.03962 62.1931 9.10036 62.1856H9.83353C9.8942 62.1931 9.9558 62.1864 10.0136 62.1657C10.0714 62.145 10.124 62.111 10.1672 62.0661C10.2105 62.0213 10.2433 61.9669 10.2633 61.9069C10.2832 61.847 10.2898 61.7832 10.2825 61.7202V59.6763H15.6476V61.7202ZM14.5109 58.0092H10.669V57.8561C11.2089 57.5145 11.4362 56.7782 11.5328 55.4999L12.1012 48.4314C12.0992 48.3893 12.1061 48.3474 12.1215 48.3084C12.1368 48.2694 12.1602 48.2344 12.19 48.2057C12.2197 48.1771 12.2552 48.1556 12.2939 48.1427C12.3325 48.1297 12.3734 48.1258 12.4138 48.131H14.5109V58.0092Z" fill="#22409A"/>
<path d="M26.9104 63.7227C26.2488 63.5957 25.5771 63.5326 24.9042 63.5342C21.1305 63.5342 20.9259 66.9919 20.9259 70.3554C20.8804 72.3686 21.2224 74.371 21.9318 76.2458C21.9871 76.404 22.0839 76.5431 22.2116 76.6472C22.3391 76.7513 22.4922 76.8163 22.6536 76.8349C23.3555 76.9608 24.0668 77.0219 24.7792 77.0175C28.445 77.0175 28.6212 73.4832 28.6212 70.1433C28.6469 68.1301 28.2996 66.1304 27.5982 64.2528C27.537 64.1108 27.4416 63.9874 27.3212 63.8945C27.2007 63.8017 27.0593 63.7425 26.9104 63.7227ZM24.8019 74.9146C24.4596 74.9186 24.1176 74.8949 23.7789 74.8439C23.3075 73.3927 23.0788 71.8687 23.1026 70.3377C23.1026 66.9742 23.4209 65.5841 24.9156 65.5841C25.2181 65.5842 25.5202 65.6078 25.8192 65.6548C26.293 67.0848 26.5182 68.5905 26.4842 70.1021C26.4842 73.4007 26.2 74.9323 24.8019 74.9323V74.9146Z" fill="#22409A"/>
<path d="M19.104 63.6524H18.1606C17.7896 63.6293 17.4234 63.7488 17.1319 63.9878C16.8404 64.2269 16.6442 64.5688 16.5806 64.9483L15.12 69.7608H14.9722L13.5286 64.9483C13.4639 64.5705 13.2682 64.2301 12.9782 63.9914C12.6882 63.7527 12.3241 63.6322 11.9543 63.6524H10.9597C10.899 63.6448 10.8374 63.6517 10.7796 63.6723C10.7217 63.6931 10.6692 63.7271 10.626 63.7719C10.5827 63.8167 10.5499 63.8712 10.5299 63.9311C10.51 63.991 10.5034 64.0549 10.5107 64.1178V76.4112C10.5036 76.4743 10.5102 76.5383 10.5302 76.5985C10.5501 76.6586 10.5829 76.7134 10.626 76.7585C10.6691 76.8038 10.7215 76.8385 10.7793 76.8599C10.837 76.8813 10.8987 76.889 10.9597 76.8824H11.7156C11.7768 76.8902 11.8391 76.8833 11.8973 76.8623C11.9556 76.8413 12.0085 76.8066 12.0518 76.7611C12.0952 76.7156 12.128 76.6604 12.1475 76.5998C12.167 76.5391 12.1728 76.4745 12.1646 76.4112V65.8908H12.3464L13.9946 71.0214C14.1708 71.5692 14.4436 72.0934 15.0631 72.0934C15.6826 72.0934 15.9384 71.5692 16.1202 71.0214L17.7684 65.8908H17.9219V76.4112C17.9145 76.4748 17.9213 76.5395 17.9415 76.6001C17.9618 76.6607 17.995 76.7158 18.0388 76.7611C18.0826 76.8065 18.1358 76.841 18.1942 76.862C18.2528 76.883 18.3151 76.89 18.3765 76.8824H19.0926C19.1541 76.89 19.2164 76.883 19.2749 76.862C19.3334 76.841 19.3865 76.8065 19.4303 76.7611C19.4741 76.7158 19.5074 76.6607 19.5276 76.6001C19.5479 76.5395 19.5546 76.4748 19.5473 76.4112V64.1178C19.5534 64.0556 19.5461 63.9928 19.5261 63.9339C19.5061 63.875 19.4738 63.8214 19.4314 63.7769C19.389 63.7324 19.3377 63.6982 19.2811 63.6767C19.2245 63.6552 19.164 63.6469 19.104 63.6524Z" fill="#22409A"/>
<path d="M33.9264 37.7165C33.9264 37.1628 32.6135 37.0215 30.9994 37.0215C29.3853 37.0215 28.0781 37.1628 28.0781 37.7165C28.0781 38.2702 29.391 38.4116 30.9994 38.4116C32.6078 38.4116 33.9264 38.2702 33.9264 37.7165Z" fill="#22409A"/>
<path d="M25.5943 30.8483C26.0536 31.4816 26.6578 31.9865 27.3523 32.3176C28.0467 32.6487 28.8098 32.7956 29.5726 32.745H32.4882C33.2511 32.7956 34.0142 32.6487 34.7087 32.3176C35.4032 31.9865 36.0072 31.4816 36.4667 30.8483C39.0461 27.663 41.4375 24.319 43.6277 20.8346C46.6114 16.0279 47.157 10.5557 45.0486 6.55019C43.4174 3.56962 39.7061 0 30.9935 0C22.2809 0 18.5924 3.56961 17.0124 6.56786C14.9038 10.5734 15.4494 16.0456 18.4333 20.8522C20.624 24.3306 23.0154 27.6687 25.5943 30.8483ZM30.9935 1.11919C33.2109 1.08137 35.4207 1.39522 37.5465 2.04988C37.9208 2.16358 38.267 2.35985 38.5613 2.62521C38.8556 2.89058 39.0911 3.21877 39.2515 3.58729C39.5245 4.26085 39.6951 4.97421 39.7573 5.70196C39.8767 6.88005 39.4788 7.37485 38.9332 6.0436C38.5399 5.14684 38.0499 4.29911 37.4725 3.5166C36.8701 2.82152 36.4041 2.88632 36.6201 3.99962C37.083 6.32136 37.0344 8.72143 36.478 11.0211C36.1939 12.1402 35.4209 12.7882 35.472 11.292C35.5687 8.24662 35.114 6.1084 34.4206 4.76537C33.7784 3.52249 33.2839 3.63441 33.3237 5.04223C33.3635 9.33633 33.1191 13.5068 31.8404 16.8232C31.4596 17.8186 31.022 17.7656 31.022 16.6406C31.022 12.7234 31.022 10.6559 31.022 6.668C31.022 5.30141 30.2944 5.86689 29.9194 6.668C28.4986 9.7251 28.004 14.1253 28.6008 19.3678C28.76 20.7638 28.112 20.6755 27.7142 19.7095C26.5775 16.9704 26.3104 14.143 26.4241 10.1846C26.4639 8.97113 25.7364 9.45419 25.367 10.379C23.6619 14.6496 24.4463 18.8435 25.5034 22.3602C25.7648 23.226 25.1226 23.1318 24.5599 22.2423C23.4561 20.465 22.7422 18.4582 22.4685 16.3637C22.3093 15.3151 21.6045 15.5154 21.4227 16.8467C21.2125 18.4312 21.5477 21.3647 22.4571 23.9741C22.6105 24.4336 22.3605 24.7223 22.0195 24.2215C21.0135 22.7784 20.0928 21.4 19.3881 20.2632C14.2446 12.04 16.3247 1.11919 30.9935 1.11919Z" fill="#22409A"/>
</g>
</svg>
