<svg width="66" height="111" viewBox="0 0 66 111" fill="none" xmlns="http://www.w3.org/2000/svg">
<path d="M33.6074 0.5C39.6328 0.500033 45.0533 1.9265 49.8555 4.78809L50.3066 5.05469C54.932 7.83975 58.5875 11.5794 61.2676 16.2676L61.5273 16.7197C64.17 21.4042 65.4892 26.6055 65.4893 32.3135C65.4893 36.4373 64.985 40.0984 63.9678 43.2891C62.9959 46.4342 61.447 49.3683 59.3252 52.0898L59.3242 52.0889C57.2587 54.751 54.6275 57.4973 51.4336 60.3262L17.5781 90.9014H65.4893V101.5H0.496094L0.5 100.996L0.568359 91.874L0.569336 91.6543L0.733398 91.5068L45.0488 51.4795C48.8319 48.0567 51.2898 44.8505 52.4756 41.8643L52.4766 41.8604L52.7031 41.2832C53.7985 38.3884 54.3457 35.377 54.3457 32.2461C54.3457 28.5366 53.5263 25.1709 51.8926 22.1396L51.5547 21.5381C49.6911 18.3434 47.188 15.8182 44.04 13.9561L44.0361 13.9531C40.8969 12.0519 37.3788 11.0986 33.4707 11.0986C29.6349 11.0987 26.2054 11.9575 23.1699 13.667L22.5674 14.0205C19.3698 15.9747 16.8423 18.5472 14.9785 21.7422C13.1647 24.9293 12.2789 28.4025 12.3232 32.1719L12.3301 32.6777H1.1123V32.1777C1.1123 26.1504 2.5399 20.7282 5.40332 15.9248L5.6748 15.4775C8.41466 11.0424 12.0486 7.51649 16.5713 4.90527L17.0264 4.64746C21.9186 1.87902 27.45 0.5 33.6074 0.5Z" stroke="#AABEFA"/>
</svg>
