<svg width="65" height="111" viewBox="0 0 65 111" fill="none" xmlns="http://www.w3.org/2000/svg">
<path d="M63.0176 0.5V10.9482L62.8623 11.0957L35.0293 37.6738C39.5308 37.7521 43.6382 38.6464 47.3438 40.3691L47.834 40.6025C52.8642 43.0521 56.8147 46.7189 59.6777 51.5928H59.6787C62.6824 56.5835 64.1748 62.4395 64.1748 69.1416C64.1748 75.479 62.7963 81.1029 60.0254 85.998C57.3041 90.8405 53.5414 94.6493 48.7441 97.417L48.7412 97.4189C43.9386 100.144 38.4965 101.5 32.4287 101.5C27.8196 101.5 23.5437 100.733 19.6064 99.1924L18.8242 98.874C14.6762 97.1226 11.0997 94.6312 8.10059 91.4014L8.09863 91.3984C5.28297 88.3229 3.18033 84.7021 1.79004 80.542L1.52148 79.7031L1.375 79.2227L1.85645 79.0781L11.3867 76.2188L11.8496 76.0801L12.0039 76.5381C13.6074 81.304 16.2233 84.8826 19.8389 87.3086L20.1855 87.5332C23.7767 89.8179 27.8039 90.92 32.2822 90.834L33.0791 90.8066C37.0244 90.621 40.416 89.6721 43.2695 87.9766L43.2725 87.9746L43.8438 87.627C46.6577 85.846 48.8284 83.4462 50.3623 80.4199L50.6602 79.8076C52.1006 76.7166 52.8271 73.165 52.8271 69.1416C52.8271 62.574 50.9095 57.3525 47.1133 53.4238L47.1094 53.4199C43.3591 49.4491 38.392 47.4492 32.1562 47.4492C30.4335 47.4492 28.6145 47.6924 26.6982 48.1826L26.6875 48.1855C24.7738 48.6306 22.9977 49.2749 21.3574 50.1172L20.9502 50.3262L20.7061 49.9395L15.6689 41.9756L15.4463 41.623L15.752 41.3408L48.5088 11.0986H5.37988V0.5H63.0176Z" stroke="#AABEFA"/>
</svg>
