<svg width="59" height="79" viewBox="0 0 59 79" fill="none" xmlns="http://www.w3.org/2000/svg">
<path d="M33 72.8948C33 71.2726 31.7358 68 30.1812 68C28.6266 68 27.3663 69.315 27.3663 70.9371C27.3663 72.5592 26.2845 73.8742 27.8391 73.8742C29.3938 73.8742 33 74.5169 33 72.8948Z" fill="#FCFCF7"/>
<path d="M17 55.8595C17 54.1891 8.76573 13 7.12743 13C5.48913 13 0.0778015 19.3958 0.0778015 21.0662C0.0778015 22.7365 -0.440923 43.7545 1.19738 43.7545C2.83568 43.7545 17 57.5299 17 55.8595Z" fill="#FCF8F3"/>
<path d="M36 62.8512C36 61.1841 46.5205 7 48.2058 7C49.8911 7 57.8662 15.3962 57.8662 17.0633C57.8662 18.7304 60.4147 39.7031 57.87 44.7347C54.3116 51.7723 36 64.5183 36 62.8512Z" fill="#FCFCF7"/>
<path d="M30.5 0.5C44.8612 0.5 56.4999 12.0952 56.5 26.3945C56.5 33.5348 52.8659 41.8217 47.7256 49.3623C42.6749 56.7715 36.219 63.3843 30.4951 67.3916C24.9253 63.5987 18.476 56.9913 13.3896 49.5303C8.20985 41.9321 4.5 33.5338 4.5 26.3945C4.50011 12.0952 16.1388 0.5 30.5 0.5Z" fill="#0F2978" stroke="#0F2978"/>
<path d="M33.3545 16.5C33.5728 16.5 33.7878 16.5911 33.9502 16.7617C34.1134 16.9333 34.2098 17.171 34.21 17.4238V26.1104L35.0723 25.2002L43.0537 16.7842L43.0586 16.7793C43.138 16.6933 43.2315 16.6262 43.333 16.5811C43.4346 16.5359 43.5428 16.5127 43.6514 16.5127C43.76 16.5127 43.8682 16.5359 43.9697 16.5811C44.0461 16.615 44.1179 16.6613 44.1826 16.7188L44.2441 16.7793L44.25 16.7852C44.5782 17.1305 44.5899 17.7364 44.2451 18.1201L38.8311 23.7861L38.543 24.0879L38.7881 24.4248L44.2578 31.9609L44.2676 31.9736L44.2783 31.9863C44.5885 32.3601 44.5327 32.9553 44.1455 33.2793L44.1338 33.2891L44.1221 33.2998C43.9789 33.4349 43.797 33.504 43.6143 33.5H43.6133C43.4961 33.4976 43.3799 33.4682 43.2725 33.4131C43.1648 33.3579 43.0677 33.2773 42.9893 33.1758L37.6777 25.8574L37.3213 25.3662L36.9072 25.8096L34.3457 28.5547L34.2109 28.6992V32.5732C34.2109 32.8261 34.1153 33.0637 33.9521 33.2354C33.7897 33.4061 33.5748 33.498 33.3564 33.498C33.138 33.498 32.9232 33.4061 32.7607 33.2354C32.5976 33.0637 32.502 32.8261 32.502 32.5732V32.0732H32.5V17.4238C32.5001 17.1711 32.5957 16.9332 32.7588 16.7617C32.9212 16.591 33.1362 16.5001 33.3545 16.5Z" fill="#FEFEFF" stroke="#0F2978"/>
<path d="M27.5 20.5C28.1152 20.5 28.5 20.9256 28.5 21.3174V32.6826C28.5 33.0748 28.1154 33.5 27.5 33.5C26.8846 33.5 26.5 33.0748 26.5 32.6826V21.3174C26.5 20.9256 26.8848 20.5 27.5 20.5Z" fill="#FEFEFF" stroke="#0F2978"/>
<path d="M22.5 22.5C23.0816 22.5 23.4999 22.9361 23.5 23.4102V32.5889C23.5 33.0637 23.0815 33.5 22.5 33.5C21.9185 33.5 21.5 33.0637 21.5 32.5889V23.4102L21.5049 23.3223C21.5529 22.8836 21.9546 22.5 22.5 22.5Z" fill="#FEFEFF" stroke="#0F2978"/>
<path d="M17.5 26.5C18.1401 26.5001 18.5 26.918 18.5 27.2539V32.7471C18.4999 33.0823 18.1402 33.4999 17.5 33.5C16.8599 33.5 16.5001 33.0826 16.5 32.7471V27.2539C16.5 26.9178 16.8604 26.5 17.5 26.5Z" fill="#FEFEFF" stroke="#0F2978"/>
<circle cx="3" cy="3" r="3" transform="matrix(1 0 0 -1 28 79)" fill="#22409A"/>
<path d="M30 48C42.1503 48 52 38.1503 52 26C52 13.8497 42.1503 4 30 4C17.8497 4 8 13.8497 8 26C8 38.1503 17.8497 48 30 48Z" fill="#22409A"/>
<path d="M31 34.494V18.5034C31 18.1047 31.1537 17.7223 31.4273 17.4403C31.701 17.1584 32.0721 17 32.459 17C32.846 17 33.2171 17.1584 33.4907 17.4403C33.7643 17.7223 33.918 18.1047 33.918 18.5034V26.3484L42.513 17.4647C42.6474 17.322 42.8082 17.2085 42.9859 17.131C43.1636 17.0535 43.3546 17.0136 43.5476 17.0136C43.7406 17.0136 43.9316 17.0535 44.1093 17.131C44.287 17.2085 44.4478 17.322 44.5822 17.4647C45.1393 18.0387 45.1393 18.9954 44.5822 19.5968L38.7461 25.583L44.6369 33.5373C45.1675 34.1637 45.0613 35.1227 44.4247 35.6444C44.1702 35.88 43.8383 36.007 43.4962 35.9997C43.2872 35.9956 43.0817 35.9445 42.8938 35.8501C42.706 35.7557 42.5404 35.6202 42.4086 35.453L36.6786 27.7151L33.9197 30.6125V34.494C33.9197 34.8928 33.766 35.2751 33.4924 35.5571C33.2187 35.839 32.8476 35.9974 32.4607 35.9974C32.0737 35.9974 31.7026 35.839 31.429 35.5571C31.1554 35.2751 31.0017 34.8928 31.0017 34.494H31Z" fill="#FEFEFF"/>
<path d="M28 33.5889C28 34.3684 27.3284 35 26.5 35C25.6716 35 25 34.3684 25 33.5889V21.4111C25 20.6322 25.6716 20 26.5 20C27.3284 20 28 20.6322 28 21.4111V33.5889Z" fill="#FEFEFF"/>
<path d="M23 33.5891C23 34.3684 22.3284 35 21.5 35C20.6716 35 20 34.3684 20 33.5891V24.4104C20 23.6316 20.6716 23 21.5 23C22.3284 23 23 23.6316 23 24.4104V33.5891Z" fill="#FEFEFF"/>
<path d="M18 34.5903C18 35.3688 17.3282 36 16.4997 36C15.6712 36 15 35.3688 15 34.5903V28.4103C15 27.6312 15.6718 27 16.4997 27C17.3282 27 18 27.6312 18 28.4103V34.5903Z" fill="#FEFEFF"/>
</svg>
