<svg width="45" height="44" viewBox="0 0 45 44" fill="none" xmlns="http://www.w3.org/2000/svg">
<path d="M22.2441 44C34.5292 44 44.4882 34.1503 44.4882 22C44.4882 9.84974 34.5292 0 22.2441 0C9.95903 0 0 9.84974 0 22C0 34.1503 9.95903 44 22.2441 44Z" fill="#22409A"/>
<path d="M23.0547 30.0636V14.2236C23.0547 13.8286 23.2133 13.4498 23.4957 13.1706C23.7781 12.8913 24.1611 12.7344 24.5604 12.7344C24.9598 12.7344 25.3428 12.8913 25.6252 13.1706C25.9076 13.4498 26.0662 13.8286 26.0662 14.2236V21.9947L34.9365 13.1947C35.0751 13.0533 35.2411 12.9409 35.4245 12.8641C35.6079 12.7874 35.805 12.7478 36.0042 12.7478C36.2033 12.7478 36.4005 12.7874 36.5839 12.8641C36.7673 12.9409 36.9332 13.0533 37.0719 13.1947C37.6468 13.7633 37.6468 14.711 37.0719 15.3067L31.0489 21.2365L37.1284 29.1159C37.6759 29.7364 37.5664 30.6864 36.9093 31.2031C36.6467 31.4365 36.3041 31.5623 35.9511 31.5551C35.7355 31.551 35.5233 31.5004 35.3294 31.4069C35.1356 31.3134 34.9647 31.1791 34.8287 31.0136L28.9152 23.3485L26.0679 26.2187V30.0636C26.0679 30.4586 25.9093 30.8374 25.6269 31.1167C25.3445 31.3959 24.9615 31.5528 24.5622 31.5528C24.1628 31.5528 23.7798 31.3959 23.4974 31.1167C23.215 30.8374 23.0564 30.4586 23.0564 30.0636H23.0547Z" fill="#FEFEFF"/>
<path d="M20.6353 30.0908C20.6353 30.8732 19.9508 31.5072 19.1067 31.5072C18.2626 31.5072 17.5781 30.8732 17.5781 30.0908V17.8667C17.5781 17.0848 18.2626 16.4502 19.1067 16.4502C19.9508 16.4502 20.6353 17.0848 20.6353 17.8667V30.0908Z" fill="#FEFEFF"/>
<path d="M15.3853 30.0866C15.3853 30.869 14.7008 31.503 13.8567 31.503C13.0126 31.503 12.3281 30.869 12.3281 30.0866V20.872C12.3281 20.0901 13.0126 19.4561 13.8567 19.4561C14.7008 19.4561 15.3853 20.0901 15.3853 20.872V30.0866Z" fill="#FEFEFF"/>
<path d="M10.2206 30.1928C10.2206 30.9323 9.5362 31.532 8.69206 31.532C7.84793 31.532 7.16406 30.9323 7.16406 30.1928V24.3222C7.16406 23.5821 7.8485 22.9824 8.69206 22.9824C9.5362 22.9824 10.2206 23.5821 10.2206 24.3222V30.1928Z" fill="#FEFEFF"/>
</svg>
